# xmcd CD database file generated by Grip 3.0.3
# 
# Track frame offsets:
#       150
#       38342
#       76219
#       105011
#       132105
#       171765
#       204189
# 
# Disc length: 3585 seconds
# 
# Revision: 3
# Processed by: cddbd v1.5PL3 Copyright (c) Steve Scherf et al.
# Submitted via: Grip 3.0.3
# 
DISCID=3f0dff07
DTITLE=Tri Continental - Live - [CD2/2)
DYEAR=2001
DGENRE=Blues
TTITLE0=Scarecrow Murders
TTITLE1=Heart And Soul
TTITLE2=Time Takes Time
TTITLE3=Burning Candles
TTITLE4=Dance And Celebrate
TTITLE5=Precious Love
TTITLE6=The House - Long Gone Blues
EXTD=
EXTT0=
EXTT1=
EXTT2=
EXTT3=
EXTT4=
EXTT5=
EXTT6=
PLAYORDER=
